<?xml version="1.0" standalone="no"?>
<!DOCTYPE svg PUBLIC "-//W3C//DTD SVG 20010904//EN"
 "http://www.w3.org/TR/2001/REC-SVG-20010904/DTD/svg10.dtd">
<svg version="1.0" xmlns="http://www.w3.org/2000/svg"
 width="40.000000pt" height="40.000000pt" viewBox="0 0 40.000000 40.000000"
 preserveAspectRatio="xMidYMid meet">

<g transform="translate(0.000000,40.000000) scale(0.100000,-0.100000)"
fill="#000000" stroke="none">
<path d="M68 360 c-10 -6 -18 -22 -18 -34 0 -13 -7 -26 -15 -30 -9 -3 -15 -18
-15 -36 0 -28 3 -30 38 -32 35 -1 35 -1 6 -5 -49 -6 -50 -35 -3 -78 21 -19 44
-35 50 -35 6 0 8 -7 5 -15 -3 -9 1 -18 9 -21 8 -4 15 -14 15 -23 0 -12 9 -16
35 -16 20 0 39 5 43 11 4 6 17 13 29 16 15 4 23 0 26 -13 3 -11 13 -19 22 -19
11 0 15 5 12 14 -4 10 0 12 15 8 16 -4 20 -2 15 10 -4 12 -1 14 15 10 17 -4
20 -1 16 15 -3 11 -1 27 3 36 11 20 1 47 -17 47 -12 0 -12 4 1 24 12 18 15 44
13 97 -3 71 -4 74 -28 74 -19 0 -30 -9 -46 -42 -22 -43 -41 -45 -47 -5 -4 30
-9 33 -58 38 -24 2 -57 7 -74 9 -16 3 -38 0 -47 -5z m50 -7 c-11 -3 -18 -14
-18 -29 0 -19 -5 -25 -17 -22 -23 4 -30 38 -8 38 9 0 14 4 11 8 -2 4 7 8 22 9
15 0 19 -1 10 -4z m196 -51 c-11 -16 -19 -22 -22 -14 -2 7 4 25 14 40 11 16
19 22 22 14 2 -7 -4 -25 -14 -40z m45 -14 c-2 -59 -14 -98 -31 -98 -16 0 -48
35 -49 55 -1 17 -2 17 -6 3 -2 -10 -11 -18 -19 -18 -8 0 -19 -12 -25 -27 l-11
-28 -9 23 c-12 32 -34 22 -33 -15 l2 -30 -28 28 c-31 33 -40 36 -40 14 0 -8
-4 -15 -9 -15 -16 0 -41 12 -41 19 0 8 127 35 145 31 21 -5 40 0 29 8 -8 5 -5
13 7 26 11 11 19 14 19 8 0 -6 9 -9 23 -5 12 3 32 5 45 5 17 0 22 5 21 22 -3
30 0 56 6 56 3 0 4 -28 4 -62z m-209 34 c0 -11 -8 -18 -20 -19 -14 -1 -20 4
-20 18 0 12 7 19 20 19 13 0 20 -7 20 -18z m38 1 c-4 -22 -22 -20 -26 1 -2 10
3 16 13 16 10 0 15 -7 13 -17z m31 -6 c12 -15 12 -17 -3 -11 -9 3 -16 13 -16
22 0 8 1 13 3 11 1 -2 9 -12 16 -22z m-80 -54 c-1 -34 -2 -35 -9 -13 -5 17 -8
19 -9 8 -2 -27 -21 -21 -21 6 0 15 7 26 18 29 9 3 18 5 20 6 1 0 2 -16 1 -36z
m-59 2 c0 -20 -5 -25 -25 -25 -20 0 -25 5 -25 25 0 20 5 25 25 25 20 0 25 -5
25 -25z m120 0 c0 -21 -4 -25 -27 -24 -24 2 -25 2 -5 6 12 2 22 11 22 18 0 7
-10 16 -22 18 -20 4 -19 4 5 6 23 1 27 -3 27 -24z m37 19 c-3 -3 -12 -4 -19
-1 -8 3 -5 6 6 6 11 1 17 -2 13 -5z m-37 -89 c0 -8 -4 -15 -10 -15 -5 0 -7 7
-4 15 4 8 8 15 10 15 2 0 4 -7 4 -15z m79 -7 c-1 -13 2 -31 6 -40 4 -11 3 -18
-3 -18 -18 0 -24 19 -17 50 8 35 15 39 14 8z m-178 -25 c12 21 32 22 48 3 14
-16 4 -46 -14 -46 -20 0 -85 40 -85 53 0 5 9 2 21 -9 19 -17 21 -18 30 -1z
m139 8 c0 -13 -28 -22 -35 -11 -3 4 1 11 7 13 20 8 28 8 28 -2z m116 -20 c-4
-5 0 -12 6 -14 7 -3 -2 -6 -21 -6 -33 -1 -34 0 -15 14 21 16 38 20 30 6z m-92
-20 c33 -27 5 -68 -38 -57 -29 7 -53 61 -27 61 5 0 12 3 16 7 9 9 30 4 49 -11z"/>
<path d="M245 250 c-3 -5 -1 -10 4 -10 6 0 11 5 11 10 0 6 -2 10 -4 10 -3 0
-8 -4 -11 -10z"/>
<path d="M50 265 c0 -8 5 -15 10 -15 6 0 10 7 10 15 0 8 -4 15 -10 15 -5 0
-10 -7 -10 -15z"/>
</g>
</svg>
